HIERARCHY
ROOT Hips
{
	OFFSET 0.000000 0.000000 0.000000
	CHANNELS 6 Xposition Yposition Zposition Zrotation Yrotation Xrotation 
	JOINT LHipJoint
	{
		OFFSET 0.000000 0.000000 0.000000
		CHANNELS 3 Zrotation Yrotation Xrotation
		JOINT LeftUpLeg
		{
			OFFSET 1.363060 -1.794630 0.839290
			CHANNELS 3 Zrotation Yrotation Xrotation
			JOINT LeftLeg
			{
				OFFSET 2.448110 -6.726130 0.000000
				CHANNELS 3 Zrotation Yrotation Xrotation
				JOINT LeftFoot
				{
					OFFSET 2.562200 -7.039590 0.000000
					CHANNELS 3 Zrotation Yrotation Xrotation
					JOINT LeftToeBase
					{
						OFFSET 0.157640 -0.433110 2.322550
						CHANNELS 3 Zrotation Yrotation Xrotation
						End Site
						{
							OFFSET 0.000000 0.000000 0.000000
						}
					}
				}
			}
		}
	}
	JOINT RHipJoint
	{
		OFFSET 0.000000 0.000000 0.000000
		CHANNELS 3 Zrotation Yrotation Xrotation
		JOINT RightUpLeg
		{
			OFFSET -1.305520 -1.794630 0.839290
			CHANNELS 3 Zrotation Yrotation Xrotation
			JOINT RightLeg
			{
				OFFSET -2.542530 -6.985550 0.000000
				CHANNELS 3 Zrotation Yrotation Xrotation
				JOINT RightFoot
				{
					OFFSET -2.568260 -7.056230 0.000000
					CHANNELS 3 Zrotation Yrotation Xrotation
					JOINT RightToeBase
					{
						OFFSET -0.164730 -0.452590 2.363150
						CHANNELS 3 Zrotation Yrotation Xrotation
						End Site
						{
							OFFSET 0.000000 0.000000 0.000000
						}
					}
				}
			}
		}
	}
	JOINT LowerBack
	{
		OFFSET 0.000000 0.000000 0.000000
		CHANNELS 3 Zrotation Yrotation Xrotation
		JOINT Spine
		{
			OFFSET 0.028270 2.035590 -0.193380
			CHANNELS 3 Zrotation Yrotation Xrotation
			JOINT Spine1
			{
				OFFSET 0.056720 2.048850 -0.042750
				CHANNELS 3 Zrotation Yrotation Xrotation
				JOINT Neck
				{
					OFFSET 0.000000 0.000000 0.000000
					CHANNELS 3 Zrotation Yrotation Xrotation
					JOINT Neck1
					{
						OFFSET -0.054170 1.746240 0.172020
						CHANNELS 3 Zrotation Yrotation Xrotation
						JOINT Head
						{
							OFFSET 0.104070 1.761360 -0.123970
							CHANNELS 3 Zrotation Yrotation Xrotation
							End Site
							{
								OFFSET 0.000000 0.000000 0.000000
							}
						}
					}
				}
				JOINT LeftShoulder
				{
					OFFSET 0.000000 0.000000 0.000000
					CHANNELS 3 Zrotation Yrotation Xrotation
					JOINT LeftArm
					{
						OFFSET 3.362410 1.200890 -0.311210
						CHANNELS 3 Zrotation Yrotation Xrotation
						JOINT LeftForeArm
						{
							OFFSET 4.983000 -0.000000 -0.000000
							CHANNELS 3 Zrotation Yrotation Xrotation
							JOINT LeftHand
							{
								OFFSET 3.483560 -0.000000 -0.000000
								CHANNELS 3 Zrotation Yrotation Xrotation
								JOINT LeftFingerBase
								{
									OFFSET 0.000000 0.000000 0.000000
									CHANNELS 3 Zrotation Yrotation Xrotation
									JOINT LeftHandIndex1
									{
										OFFSET 0.715260 -0.000000 -0.000000
										CHANNELS 3 Zrotation Yrotation Xrotation
										End Site
										{
											OFFSET 0.000000 0.000000 0.000000
										}
									}
								}
								JOINT LThumb
								{
									OFFSET 0.000000 0.000000 0.000000
									CHANNELS 3 Zrotation Yrotation Xrotation
									End Site
									{
										OFFSET 0.000000 0.000000 0.000000
									}
								}
							}
						}
					}
				}
				JOINT RightShoulder
				{
					OFFSET 0.000000 0.000000 0.000000
					CHANNELS 3 Zrotation Yrotation Xrotation
					JOINT RightArm
					{
						OFFSET -3.136600 1.374050 -0.404650
						CHANNELS 3 Zrotation Yrotation Xrotation
						JOINT RightForeArm
						{
							OFFSET -5.241900 -0.000000 -0.000000
							CHANNELS 3 Zrotation Yrotation Xrotation
							JOINT RightHand
							{
								OFFSET -3.444170 -0.000000 -0.000000
								CHANNELS 3 Zrotation Yrotation Xrotation
								JOINT RightFingerBase
								{
									OFFSET 0.000000 0.000000 0.000000
									CHANNELS 3 Zrotation Yrotation Xrotation
									JOINT RightHandIndex1
									{
										OFFSET -0.622530 -0.000000 -0.000000
										CHANNELS 3 Zrotation Yrotation Xrotation
										End Site
										{
											OFFSET 0.000000 0.000000 0.000000
										}
									}
								}
								JOINT RThumb
								{
									OFFSET 0.000000 0.000000 0.000000
									CHANNELS 3 Zrotation Yrotation Xrotation
									End Site
									{
										OFFSET 0.000000 0.000000 0.000000
									}
								}
							}
						}
					}
				}
			}
		}
	}
}
MOTION
Frames: 11
Frame Time: 0.008333
6.290640 18.008243 2.321428 173.297162 -88.331556 -130.238092 -11.203843 0.128482 1.261906 -7.638020 5.783612 -48.929876 -0.525396 1.406696 36.165088 2.042405 10.481694 29.053782 5.938300 0.000000 -71.310600 10.386488 -0.757618 -0.389852 11.061796 -12.219657 -52.868193 1.644774 -3.707300 40.413210 -0.202153 3.747797 30.316477 2.317100 0.000001 -85.264200 -0.744478 -1.008480 0.218582 -0.489801 -0.960506 -3.133603 -3.375577 -0.992476 -1.990400 2.497483 -4.634645 -2.568523 -1.038509 -0.136500 1.078582 0.000000 0.000000 0.000000 8.234760 -3.637459 0.904851 -59.896714 -41.047598 5.197849 -0.108464 -75.568635 -0.134929 12.943978 -6.837885 -0.868983 -0.179239 0.713220 -0.000000 0.000000 0.000000 0.000000 0.000000 0.000000 0.000000 -2.567397 0.408193 0.936938 65.998402 40.559482 15.901529 0.131034 69.628339 -0.107371 -14.101389 13.609943 -1.790703 0.164572 -0.623806 -0.000000 0.000000 0.000000 0.000000 0.000000 0.000000 0.000000 
6.142852 18.172303 2.306103 178.141561 -88.123160 -134.733848 -11.195369 0.015363 1.321570 -7.578544 5.672637 -50.017217 -0.517918 1.447075 36.360895 2.050157 10.105531 30.604266 5.894400 -0.000000 -68.838600 10.292300 -0.651727 -0.250588 11.176848 -11.736175 -54.299161 1.625561 -3.782025 40.818151 -0.192713 3.789625 30.929479 2.369000 -0.000000 -84.093899 -0.771458 -0.980463 0.053239 -0.447320 -0.928341 -3.180748 -3.156855 -0.958105 -2.054914 2.316226 -4.660891 -2.473362 -0.875430 -0.127407 1.106187 0.000000 0.000000 0.000000 8.927524 -3.234605 0.708438 -59.313710 -42.145356 4.181811 -0.066251 -78.665005 -0.137035 12.491525 -6.573664 -0.810928 -0.164559 0.735942 -0.000000 0.000000 0.000000 0.000000 0.000000 0.000000 0.000000 -3.636172 0.459861 0.806187 64.464781 41.611683 14.479190 0.091221 72.778931 -0.112314 -13.848495 13.571203 -1.756585 0.159659 -0.650899 -0.000000 0.000000 0.000000 0.000000 0.000000 0.000000 0.000000 
5.999889 18.321567 2.290598 -179.163672 -87.982454 -136.862538 -11.144980 -0.102265 1.410910 -7.583121 5.331591 -51.511145 -0.517362 1.515444 36.759443 2.030937 9.746235 31.287789 5.767300 0.000001 -66.777000 10.211273 -0.538767 -0.044792 11.230780 -11.021886 -56.110730 1.612217 -3.892256 41.356627 -0.156813 3.617312 30.559525 2.215601 0.000000 -83.259400 -0.783833 -0.974187 -0.187918 -0.398073 -0.919559 -3.246747 -2.924334 -0.948488 -2.117297 2.143139 -4.732372 -2.423595 -0.701730 -0.116744 1.118994 0.000000 0.000000 0.000000 9.734147 -2.786649 0.504640 -58.661060 -43.199505 2.935666 -0.052151 -81.834928 -0.141135 12.260741 -6.318699 -0.769987 -0.153275 0.758733 -0.000000 0.000000 0.000000 0.000000 0.000000 0.000000 0.000000 -4.744720 0.431865 0.668713 62.755314 42.634791 12.676806 0.062821 76.026699 -0.118400 -13.716923 13.514609 -1.736175 0.156490 -0.679546 -0.000000 0.000000 0.000000 0.000000 0.000000 0.000000 0.000000 
5.862010 18.456445 2.275040 -178.233003 -87.922549 -137.035502 -11.061722 -0.225048 1.522907 -7.637284 4.768422 -53.362249 -0.518370 1.610873 37.323442 1.988958 9.442155 31.176232 5.601600 -0.000000 -65.215500 10.139796 -0.420292 0.216012 11.192136 -10.123995 -58.244090 1.608772 -4.032734 41.972252 -0.102403 3.261382 29.326230 1.891500 -0.000000 -82.689400 -0.786923 -0.991114 -0.481205 -0.343429 -0.934937 -3.326645 -2.681702 -0.964343 -2.176630 1.979159 -4.845392 -2.406577 -0.521974 -0.104952 1.120289 0.000000 0.000000 0.000000 10.648597 -2.304489 0.292249 -57.906195 -44.192261 1.434048 -0.074159 -85.078046 -0.147871 12.292757 -6.091348 -0.749364 -0.146903 0.781542 -0.000000 0.000000 0.000000 0.000000 0.000000 0.000000 0.000000 -5.868470 0.317726 0.522604 60.824711 43.619717 10.476959 0.051443 79.347788 -0.126194 -13.783014 13.425908 -1.737378 0.156768 -0.709073 -0.000000 0.000000 0.000000 0.000000 0.000000 0.000000 0.000000 
5.729495 18.577652 2.259560 -178.849956 -87.945454 -135.502278 -10.950369 -0.352280 1.650562 -7.721742 4.002549 -55.515899 -0.519654 1.730013 38.011704 1.931592 9.218938 30.370109 5.430700 -0.000000 -64.119399 10.075542 -0.294184 0.519408 11.036984 -9.095092 -60.637489 1.620384 -4.194531 42.609285 -0.042182 2.761358 27.386414 1.447000 -0.000000 -82.261100 -0.779596 -1.029355 -0.802327 -0.283972 -0.972304 -3.415167 -2.434769 -1.003413 -2.231255 1.824740 -4.990653 -2.407652 -0.341820 -0.092605 1.114074 0.000000 0.000000 0.000000 11.650717 -1.797332 0.073261 -57.002388 -45.110176 -0.347564 -0.139092 -88.387095 -0.157622 12.602790 -5.913114 -0.750860 -0.146685 0.804279 0.000000 0.000000 0.000000 0.000000 0.000000 0.000000 0.000000 -6.978499 0.119764 0.366610 58.622580 44.549519 7.860883 0.063074 82.714267 -0.136255 -14.114316 13.294635 -1.766901 0.162293 -0.738622 -0.000000 0.000000 0.000000 0.000000 0.000000 0.000000 0.000000 
5.602124 18.685935 2.244297 179.018645 -88.043571 -132.326241 -10.812310 -0.481945 1.787833 -7.817891 3.063205 -57.917275 -0.522831 1.866977 38.778902 1.868242 9.090209 28.999507 5.276600 0.000000 -63.398400 10.018061 -0.157738 0.854022 10.752075 -7.989498 -63.233933 1.651165 -4.367384 43.220572 0.008072 2.157580 24.926463 0.938400 0.000001 -81.760300 -0.756753 -1.084383 -1.130527 -0.220061 -1.027199 -3.507406 -2.190854 -1.061125 -2.278490 1.679753 -5.155031 -2.411279 -0.167408 -0.080368 1.104771 0.000000 0.000000 0.000000 12.707024 -1.274198 -0.147193 -55.893358 -45.945158 -2.431103 179.749930 -88.254814 179.829578 13.180900 -5.806377 -0.775878 -0.153518 0.826779 -0.000000 0.000000 0.000000 0.000000 0.000000 0.000000 0.000000 -8.044175 -0.152359 0.200417 56.102249 45.397259 4.813273 0.103150 86.095857 -0.148692 -14.761263 13.113940 -1.829246 0.174797 -0.767131 -0.000000 0.000000 0.000000 0.000000 0.000000 0.000000 0.000000 
5.479563 18.782162 2.229307 175.270794 -88.200764 -127.436481 -10.647182 -0.610375 1.929339 -7.911121 1.988542 -60.516698 -0.531198 2.015271 39.580856 1.809072 9.057788 27.216682 5.149500 0.000000 -62.905400 9.967590 -0.008360 1.209602 10.338314 -6.857980 -65.984894 1.701775 -4.541122 43.768193 0.031404 1.478575 22.157451 0.414600 0.000000 -81.070500 -0.710976 -1.149144 -1.449223 -0.151973 -1.092873 -3.599097 -1.957703 -1.130600 -2.315449 1.542722 -5.322349 -2.402711 -0.004566 -0.068915 1.096807 0.000000 0.000000 0.000000 13.774348 -0.743051 -0.361709 -54.519409 -46.694242 -4.835327 179.595899 -84.876099 179.814085 13.994290 -5.789526 -0.825318 -0.167871 0.848781 0.000000 0.000000 0.000000 0.000000 0.000000 0.000000 0.000000 -9.038400 -0.481772 0.024540 53.229247 46.125877 1.326807 0.173113 89.461034 -0.164698 -15.749721 12.877595 -1.924518 0.195718 -0.793327 0.000000 0.000000 0.000000 0.000000 0.000000 0.000000 0.000000 
5.361200 18.867134 2.214708 169.747049 -88.391515 -120.699835 -10.456053 -0.731616 2.071406 -7.990086 0.820649 -63.270193 -0.548018 2.168580 40.372400 1.764815 9.121264 25.198331 5.057500 -0.000000 -62.612400 9.923625 0.155946 1.576789 9.810860 -5.742238 -68.849950 1.768473 -4.706407 44.222126 0.013001 0.737358 19.301849 -0.090400 0.000000 -80.283600 -0.634105 -1.214568 -1.746755 -0.079894 -1.160707 -3.686635 -1.742149 -1.203081 -2.338704 1.409539 -5.476034 -2.370063 0.142030 -0.058823 1.093918 0.000000 0.000000 0.000000 14.801072 -0.207096 -0.561436 -52.824164 -47.361692 -7.575380 179.409393 -81.516671 179.796657 14.992907 -5.873765 -0.899678 -0.189783 0.869921 0.000000 0.000000 0.000000 0.000000 0.000000 0.000000 0.000000 -9.942207 -0.847831 -0.159723 49.992275 46.692795 -2.588618 -179.727888 87.223039 179.816931 -17.075928 12.579232 -2.048016 0.225988 -0.815765 -0.000000 0.000000 0.000000 0.000000 0.000000 0.000000 0.000000 
5.246186 18.941410 2.200190 162.251202 -88.581573 -111.942210 -10.241024 -0.835095 2.211046 -8.062027 -0.393776 -66.145833 -0.577234 2.323811 41.118849 1.741595 9.263488 23.102413 4.996600 -0.000000 -62.237000 9.887827 0.335757 1.950574 9.188402 -4.673060 -71.807526 1.843903 -4.858967 44.582582 -0.052996 -0.044032 16.531623 -0.549901 0.000000 -79.129000 -0.532596 -1.269635 -2.020648 -0.007553 -1.219402 -3.768572 -1.549865 -1.267166 -2.345775 1.280574 -5.602856 -2.304371 0.268757 -0.050576 1.099257 0.000000 0.000000 0.000000 15.746482 0.321900 -0.739810 -50.770166 -47.946663 -10.657173 179.207792 -78.228731 179.778377 16.114046 -6.056121 -0.997950 -0.218774 0.889623 0.000000 0.000000 0.000000 0.000000 0.000000 0.000000 0.000000 -10.736428 -1.229428 -0.347684 46.406885 47.045884 -6.900408 -179.607657 83.987782 179.796547 -18.706581 12.211424 -2.189533 0.265955 -0.832944 -0.000000 0.000000 0.000000 0.000000 0.000000 0.000000 0.000000 
5.133774 19.005562 2.185854 152.990439 -88.733958 -101.391209 -10.014969 -0.913170 2.346592 -8.130180 -1.616051 -69.107424 -0.619954 2.478493 41.779736 1.745228 9.480110 21.100076 4.974200 -0.000000 -61.899200 9.852641 0.528822 2.322767 8.499887 -3.670386 -74.829242 1.920932 -4.994033 44.836706 -0.166601 -0.859556 14.014996 -0.958501 -0.000000 -77.933100 -0.413401 -1.305732 -2.266212 0.062425 -1.260121 -3.842452 -1.382122 -1.313946 -2.333926 1.148322 -5.692779 -2.203601 0.374995 -0.044312 1.113797 0.000000 0.000000 0.000000 16.561583 0.847892 -0.890340 -48.334235 -48.459088 -14.079806 179.013327 -75.071582 179.760481 17.294571 -6.324923 -1.117928 -0.254028 0.907301 0.000000 0.000000 0.000000 0.000000 0.000000 0.000000 0.000000 -11.422858 -1.608560 -0.534974 42.526568 47.144657 -11.546091 -179.478747 80.868358 179.775323 -20.575996 11.768027 -2.334357 0.315010 -0.843500 -0.000000 0.000000 0.000000 0.000000 0.000000 0.000000 0.000000 
5.023074 19.059831 2.171498 142.681173 -88.816532 -89.779807 -9.795080 -0.962603 2.476343 -8.212483 -2.816081 -72.120716 -0.676734 2.631501 42.321981 1.774962 9.755706 19.322367 4.992800 -0.000001 -61.575600 9.809773 0.725522 2.688528 7.769287 -2.749164 -77.895741 1.995461 -5.111757 44.985778 -0.317869 -1.684651 11.852505 -1.315200 -0.000000 -76.756000 -0.297716 -1.318715 -2.483742 0.124592 -1.277800 -3.907166 -1.237394 -1.338243 -2.301929 1.008898 -5.743229 -2.070301 0.461638 -0.039972 1.137219 0.000000 0.000000 0.000000 17.215052 1.368949 -1.011535 -45.523643 -48.901971 -17.826800 178.847904 -72.105329 179.744181 18.475881 -6.654212 -1.254197 -0.294358 0.922245 -0.000000 0.000000 0.000000 0.000000 0.000000 0.000000 0.000000 -12.005822 -1.974721 -0.714307 38.436281 46.953426 -16.434727 -179.357330 77.899838 179.754754 -22.594939 11.248394 -2.465275 0.371724 -0.846471 -0.000000 0.000000 0.000000 0.000000 0.000000 0.000000 0.000000 
